<svg xmlns="http://www.w3.org/2000/svg" version="1.1" xmlns:xlink="http://www.w3.org/1999/xlink" xmlns:svgjs="http://svgjs.dev/svgjs" width="308.7612359841165" height="304.915625" viewBox="0 0 2000 2433"><g transform="matrix(1,0,0,1,1.964532019704393,0.9868392007967941)"><svg viewBox="0 0 203 247" data-background-color="#ffffff" preserveAspectRatio="xMidYMid meet" height="2433" width="2000" xmlns="http://www.w3.org/2000/svg" xmlns:xlink="http://www.w3.org/1999/xlink"><g id="tight-bounds" transform="matrix(1,0,0,1,-0.19939999999999714,-0.09997365579206985)"><svg viewBox="0 0 203.3986580995475 247.2" height="247.2" width="203.3986580995475"><g><svg viewBox="0 0 203.3986580995475 247.2" height="247.2" width="203.3986580995475"><g><svg viewBox="0 0 203.3986580995475 247.2" height="247.2" width="203.3986580995475"><g id="textblocktransform"><svg viewBox="0 0 203.3986580995475 247.2" height="247.2" width="203.3986580995475" id="textblock"><g><svg viewBox="0 0 203.3986580995475 247.2" height="247.2" width="203.3986580995475"><path d="M202.922 53.02C201.966 27.36 199.241 20.227 199.241 20.227 190.874-6.202 180.432-0.506 171.052 3.292 154.49 3.446 137.995 9.091 121.472 12.119 86.789 12.581 51.811 4.986 17.301 23.717 14.059 29.464-3.363 24.846 0.577 56.304 1.609 69.39 5.377 83.913 5.262 95.922 5.778 98.026 6.496 93.202 6.802 96.23 7.873 104.39 9.622 100.541 11.057 105.365 9.058 118.246 10.493 128.971 11.86 140.21 9.45 143.135 6.362 141.749 4.975 151.449 4.832 158.479 4.057 157.145 3.206 156.837 2.585 156.632 1.332 157.402 1.542 159.608 2.26 167.152-0.819 171.514 1.112 178.904-0.217 186.91 2.03 193.838 1.724 202.511 1.686 204.255 1.896 205.744 2.231 206.154 3.713 208.361 1.552 212.672 1.781 217.342 16.985 249.262 33.48 227.195 49.057 241.872 53.102 231.608 50.061 245.516 51.677 243.36 52.939 240.846 53.857 251.263 55.282 245.362 55.502 243.668 55.167 239.665 55.951 240.435 56.363 240.846 56.726 240.743 56.783 238.382 56.869 234.841 56.114 237.048 55.913 235.201 58.084 225.861 57.548 248.081 59.585 247.158 59.489 244.438 58.896 240.538 60.111 241.051 61.316 237.151 61.354 233.918 62.425 242.693 62.463 244.592 62.654 245.926 62.96 246.85 66.307 237.305 69.635 250.237 73.144 245.926 75.296 241.205 77.361 248.492 79.541 246.696 80.306 245.259 81.081 242.693 81.817 247.004 90.834 247.928 100.444 244.079 108.993 247.158 131.837 241.41 156.249 249.518 180.337 241.923 186.016 238.998 191.916 234.841 197.453 231.506 197.453 231.506 201.938 222.371 201.938 181.316S202.894 145.393 203.037 112.703C203.181 80.013 203.85 78.679 202.894 53.02Z" opacity="1" fill="#ec9131" data-fill-palette-color="tertiary"></path><g transform="matrix(1,0,0,1,55.768319999999996,26.230666666666668)"><svg width="91.86201809954751" viewBox="1.1200000047683716 -32.31999969482422 20.35999870300293 43.15999984741211" height="194.73866666666666" data-palette-color="#ffffff"><path d="M17.77-25.29L17.77-25.29 17.77-5.57Q17.77 1.66 14.11 6.25 10.45 10.84 4.44 10.84L4.44 10.84Q3.71 10.84 2.83 10.55 1.95 10.25 1.76 10.06L1.76 10.06Q1.12 9.23 1.12 7.86L1.12 7.86Q1.12 6.74 2.05 5.96 2.98 5.18 4.2 5.18L4.2 5.18Q5.22 5.18 6.42 6.45 7.62 7.71 8.3 7.71L8.3 7.71Q10.11 7.71 11.16 4.37 12.21 1.03 12.21-5.18L12.21-5.18 12.21-25.59Q12.21-28.32 11.87-29.59L11.87-29.59Q11.72-30.18 10.52-30.44 9.33-30.71 8.54-30.71L8.54-30.71Q8.35-30.71 8.35-31.45L8.35-31.45Q8.35-32.23 8.45-32.32L8.45-32.32Q9.18-32.28 10.55-32.2 11.91-32.13 13.04-32.08 14.16-32.03 15.14-32.03L15.14-32.03Q15.48-32.03 21.34-32.32L21.34-32.32Q21.48-31.88 21.48-31.54L21.48-31.54Q21.48-30.71 21.29-30.71L21.29-30.71Q20.85-30.71 19.56-30.32 18.26-29.93 18.16-29.59L18.16-29.59Q17.77-28.08 17.77-25.29Z" opacity="1" transform="matrix(1,0,0,1,0,0)" fill="#ffffff" class="undefined-text-0" data-fill-palette-color="quaternary" id="text-0"></path></svg></g></svg></g></svg></g></svg></g><g></g></svg></g><defs></defs></svg><rect width="203.3986580995475" height="247.2" fill="none" stroke="none" visibility="hidden"></rect></g></svg></g></svg>